<svg width="32" height="32" viewBox="0 0 32 32" fill="none" xmlns="http://www.w3.org/2000/svg">
<path d="M10.2384 13.3095L6.78116 16.7667C6.22017 17.3202 5.7742 17.9792 5.46895 18.7058C5.16371 19.4324 5.0052 20.2122 5.00256 21.0003C4.99992 21.7884 5.1532 22.5693 5.45357 23.2979C5.75395 24.0265 6.19548 24.6885 6.75276 25.2458C7.31003 25.803 7.97203 26.2446 8.70065 26.545C9.42927 26.8453 10.2101 26.9986 10.9982 26.996C11.7863 26.9933 12.5661 26.8348 13.2927 26.5296C14.0193 26.2243 14.6783 25.7784 15.2318 25.2174L16.3835 24.0657C16.5392 23.9154 16.6635 23.7357 16.749 23.5369C16.8345 23.3381 16.8795 23.1242 16.8815 22.9078C16.8835 22.6915 16.8424 22.4768 16.7605 22.2765C16.6787 22.0762 16.5577 21.8942 16.4048 21.7411C16.2519 21.588 16.0699 21.4669 15.8697 21.3848C15.6695 21.3028 15.4549 21.2615 15.2385 21.2632C15.0221 21.265 14.8082 21.3099 14.6093 21.3952C14.4105 21.4805 14.2306 21.6046 14.0802 21.7602L12.9263 22.9129C12.4161 23.4186 11.7264 23.7015 11.008 23.6998C10.2897 23.6981 9.6013 23.412 9.09344 22.904C8.58558 22.396 8.29963 21.7075 8.29816 20.9892C8.29669 20.2709 8.57982 19.5812 9.08559 19.0711L12.5428 15.6139C12.9165 15.2401 13.3911 14.9834 13.9085 14.8753C14.4259 14.7673 14.9636 14.8125 15.4557 15.0055C15.6309 15.075 15.7954 15.146 15.9489 15.2184L16.453 15.4542C17.1267 15.7584 17.6449 15.8888 18.3044 15.2304C19.2518 14.283 19.0063 13.4084 17.8513 12.612C16.7009 11.8203 15.3094 11.4566 13.9187 11.584C12.528 11.7115 11.2258 12.322 10.2384 13.3095ZM16.7681 6.77972L15.6165 7.9314C15.3194 8.23863 15.155 8.65022 15.1585 9.07753C15.162 9.50485 15.3332 9.91369 15.6352 10.216C15.9372 10.5183 16.3459 10.6899 16.7732 10.6938C17.2005 10.6977 17.6123 10.5336 17.9198 10.2369L19.0726 9.08524C19.323 8.82575 19.6227 8.61874 19.9541 8.47629C20.2854 8.33384 20.6418 8.25881 21.0025 8.25558C21.3631 8.25234 21.7208 8.32097 22.0547 8.45744C22.3885 8.59392 22.6918 8.79552 22.9469 9.05048C23.202 9.30544 23.4038 9.60866 23.5405 9.94243C23.6771 10.2762 23.746 10.6339 23.7429 10.9945C23.7399 11.3552 23.6651 11.7116 23.5228 12.043C23.3806 12.3745 23.1737 12.6742 22.9144 12.9249L19.4572 16.3821C19.0835 16.7559 18.6089 17.0126 18.0915 17.1207C17.5741 17.2287 17.0364 17.1835 16.5443 16.9905C16.369 16.921 16.2046 16.85 16.051 16.7776L15.5469 16.5418C14.8733 16.2376 14.354 16.1072 13.6955 16.7656C12.7481 17.713 12.9937 18.5876 14.1486 19.384C15.2991 20.1757 16.6905 20.5394 18.0812 20.412C19.472 20.2845 20.7741 19.674 21.7616 18.6865L25.2188 15.2293C25.7798 14.6758 26.2258 14.0168 26.531 13.2902C26.8363 12.5636 26.9948 11.7838 26.9974 10.9957C27 10.2076 26.8468 9.42674 26.5464 8.69813C26.246 7.96951 25.8045 7.30751 25.2472 6.75023C24.6899 6.19296 24.0279 5.75142 23.2993 5.45105C22.5707 5.15067 21.7899 4.99739 21.0018 5.00003C20.2137 5.00267 19.4339 5.16118 18.7073 5.46643C17.9807 5.77168 17.3217 6.21873 16.7681 6.77972Z" fill="#8C2526"/>
</svg>
