<svg width="32" height="32" viewBox="0 0 32 32" fill="none" xmlns="http://www.w3.org/2000/svg">
<path fill-rule="evenodd" clip-rule="evenodd" d="M23.503 24.6888V24.6865L23.5238 24.6371L27 7.29085V7.23578C27 6.80327 26.8377 6.42583 26.4877 6.19983C26.1805 6.00135 25.827 5.98759 25.5789 6.00594C25.3481 6.02679 25.1202 6.07296 24.8997 6.14361C24.8055 6.17334 24.7127 6.20702 24.6215 6.24457L24.6064 6.2503L5.22605 13.7751L5.22025 13.7773C5.16087 13.796 5.10312 13.8194 5.04754 13.8473C4.90979 13.9088 4.77756 13.9817 4.65228 14.0653C4.40308 14.2351 3.929 14.6343 4.00898 15.2676C4.07505 15.793 4.44017 16.1257 4.68706 16.299C4.83246 16.4006 4.9892 16.4853 5.15418 16.5514L5.19127 16.5674L5.20286 16.5709L5.21098 16.5743L8.60254 17.7044C8.59018 17.9154 8.6122 18.1277 8.66861 18.3411L10.3667 24.7186C10.4595 25.0662 10.6599 25.3764 10.9399 25.6055C11.2199 25.8346 11.5654 25.9711 11.9278 25.9959C12.2902 26.0207 12.6514 25.9325 12.9605 25.7438C13.2697 25.555 13.5114 25.2751 13.6516 24.9434L16.3037 22.1373L20.8579 25.5928L20.9228 25.6203C21.3366 25.7993 21.7226 25.8555 22.0761 25.8085C22.4296 25.7603 22.7101 25.6134 22.9211 25.4471C23.1651 25.2513 23.3596 25.0019 23.489 24.7186L23.4983 24.6991L23.5018 24.6922L23.503 24.6888ZM10.3493 17.9028C10.3305 17.8321 10.335 17.7572 10.3621 17.6891C10.3892 17.621 10.4375 17.5633 10.5 17.5242L21.9996 10.2966C21.9996 10.2966 22.6765 9.88935 22.6522 10.2966C22.6522 10.2966 22.7727 10.3678 22.4099 10.7016C22.0668 11.0194 14.2138 18.5235 13.4187 19.283C13.3755 19.3262 13.3447 19.3801 13.3294 19.439L12.0474 24.2803L10.3493 17.9028Z" fill="#8C2526"/>
</svg>
